<?xml version="1.0" standalone="no"?> 
<!DOCTYPE svg PUBLIC "-//W3C//DTD SVG 1.1//EN" 
  "http://www.w3.org/Graphics/SVG/1.1/DTD/svg11.dtd"> 
<svg width='80' height='80' xmlns="http://www.w3.org/2000/svg" version="1.1"><g id="chevron" transform="translate(40, 40)"><g><path d="M-26.65959926214212,-29.820559471310915A40,40 0 0,1 26.65959926214212,-29.820559471310922L12.47306331474629,-15.634023523915088A20,20 0 0,0 -12.473063314746287,-15.63402352391509Z" id="svg-zoom-in" class="chevron-tab"></path><text transform="translate(-2.9999999999999982,-27)">+</text></g><g><path d="M29.820559471310922,-26.659599262142116A40,40 0 0,1 29.820559471310922,26.659599262142116L15.634023523915088,12.473063314746287A20,20 0 0,0 15.634023523915088,-12.473063314746287Z" id="svg-toggle-info" class="chevron-tab"></path><text transform="translate(27,3)">ℹ</text></g><g><path d="M26.65959926214212,29.820559471310922A40,40 0 0,1 -26.65959926214212,29.820559471310922L-12.473063314746287,15.63402352391509A20,20 0 0,0 12.47306331474629,15.634023523915088Z" id="svg-zoom-out" class="chevron-tab"></path><text transform="translate(1.83697019872103e-15,30)">-</text></g><g><path d="M-29.820559471310915,26.659599262142123A40,40 0 0,1 -29.820559471310922,-26.659599262142116L-15.63402352391509,-12.473063314746284A20,20 0 0,0 -15.634023523915086,12.47306331474629Z" id="svg-toggle-play" class="chevron-tab"></path><text transform="translate(-36,6.0000000000000036)">&#9616;&#9616;</text></g></g></svg>
